<?xml version="1.0" encoding="utf-8"?>
<!-- Generator: Adobe Illustrator 16.0.0, SVG Export Plug-In . SVG Version: 6.00 Build 0)  -->
<!DOCTYPE svg PUBLIC "-//W3C//DTD SVG 1.1//EN" "http://www.w3.org/Graphics/SVG/1.1/DTD/svg11.dtd">
<svg version="1.1" id="Layer_1" xmlns="http://www.w3.org/2000/svg" xmlns:xlink="http://www.w3.org/1999/xlink" x="0px" y="0px"
	 width="355.951px" height="109.984px" viewBox="0 0 355.951 109.984" enable-background="new 0 0 355.951 109.984"
	 xml:space="preserve">
<g>
	<path fill="#F9B900" d="M63.005,75c0,12-15.333,13.667-18.667,13.667s-16.667-1-16.667-9.334s12.667-10.666,17.667-12
		s41-4.333,41-32.333s-37-29-37-29C7.672,6,7.005,36.667,7.005,36.667V76c0,0-1.333,28,38,28s39-29,39-29H63.005z M27.672,38
		c0,0,1.667-15.667,20-15.667s19.667,15.667,15.667,20s-6.334,6-35.667,14.333V38z"/>
	<path fill="#575547" d="M93.005,102.667h18V45c0,0-0.333-8.333,11.333-8.333s11,8,11,8l0.007,58h18.327V44
		c0,0,0.333-7.333,11.667-7.333S173.672,44,173.672,44l0.022,49.667c0,0,0.311,9,8.311,9s9.334,0,9.334,0v-60
		c0,0-0.001-19-27.334-19c-19,0-21.833,5-21.833,5s-6.5-5-20.167-5s-29,5.666-29,15.833S93.005,102.667,93.005,102.667z"/>
	<path fill="#575547" d="M234.338,23.667c-30.333,0-34,14.667-34,25.667h16c0,0,1.001-12.333,16.334-12.333
		s18.666,12.667,2.333,16.667S196.672,63.333,196.672,80s12.333,24.333,32.333,24.333s35.667-8.332,35.667-25.666s0-34,0-34
		S264.671,23.667,234.338,23.667z M246.338,78.333c0,0-3.666,13-16.666,13s-18.334-15.333-10.334-19s27-8.666,27-8.666V78.333z"/>
	<path fill="#575547" d="M273.672,102.667h17V44c0,0,1.083-12.5,18-5.333V25.333c0,0-6.001-1.667-15.334-1.667s-20,2.999-20,16.333
		S273.672,102.667,273.672,102.667z"/>
	<path fill="#575547" d="M315.005,7.667v80.667c0,0-0.999,16,18.667,16c16.083,0,16.666-2,16.666-2V89c0,0-3.083,2-9,2
		c-7.333,0-7-6-7-6V40c0,0,16.334,2.667,16.334-10v-4.667h-16.334c0,0,4.084-17.833-9.583-17.833L315.005,7.667z"/>
</g>
</svg>
